<svg width="16" height="16" viewBox="0 0 16 16" fill="none" xmlns="http://www.w3.org/2000/svg">
<path fill-rule="evenodd" clip-rule="evenodd" d="M8 1.83333C4.59425 1.83333 1.83334 4.59424 1.83334 8C1.83334 11.4058 4.59425 14.1667 8 14.1667C11.4058 14.1667 14.1667 11.4058 14.1667 8C14.1667 4.59424 11.4058 1.83333 8 1.83333ZM0.833336 8C0.833336 4.04195 4.04196 0.833328 8 0.833328C11.958 0.833328 15.1667 4.04195 15.1667 8C15.1667 11.958 11.958 15.1667 8 15.1667C4.04196 15.1667 0.833336 11.958 0.833336 8ZM6.43424 5.08531C7.67528 3.85217 9.67769 3.85055 10.9136 5.08644L10.9147 5.08756C12.1478 6.32861 12.1495 8.33099 10.9136 9.56688L9.43355 11.0469C8.71829 11.7621 7.55503 11.7621 6.83977 11.0469C6.1245 10.3316 6.1245 9.16836 6.83977 8.45309L7.77979 7.51309C7.97506 7.31783 8.29164 7.31783 8.4869 7.5131C8.68216 7.70836 8.68216 8.02494 8.48689 8.2202L7.54687 9.1602C7.22214 9.48494 7.22214 10.015 7.54687 10.3398C7.87161 10.6645 8.4017 10.6645 8.72644 10.3398L10.2065 8.85977C11.0504 8.01584 11.0522 6.64529 10.2059 5.79296C9.36189 4.9496 7.99174 4.948 7.13961 5.79415L7.13908 5.79467L5.52689 7.40686C4.82882 8.10493 4.82882 9.23502 5.52689 9.93309C5.72215 10.1284 5.72215 10.4449 5.52689 10.6402C5.33163 10.8355 5.01505 10.8355 4.81979 10.6402C3.73119 9.55161 3.73119 7.78835 4.81979 6.69976L6.43424 5.08531Z" fill="#A0AEC0"/>
</svg>
