<svg width="14" height="13" viewBox="0 0 14 13" fill="none" xmlns="http://www.w3.org/2000/svg">
<path fill-rule="evenodd" clip-rule="evenodd" d="M3.19047 1.14286C2.73582 1.14286 2.29978 1.32347 1.97829 1.64496C1.6568 1.96645 1.47619 2.40249 1.47619 2.85714V7.42857C1.47619 7.88323 1.6568 8.31926 1.97829 8.64076C2.29978 8.96225 2.73582 9.14286 3.19047 9.14286H4.71428C4.86584 9.14286 5.01118 9.20306 5.11835 9.31023L7 11.1919L8.88165 9.31023C8.98882 9.20306 9.13416 9.14286 9.28571 9.14286H10.8095C11.2642 9.14286 11.7002 8.96225 12.0217 8.64076C12.3432 8.31926 12.5238 7.88323 12.5238 7.42857V2.85714C12.5238 2.40249 12.3432 1.96645 12.0217 1.64496C11.7002 1.32347 11.2642 1.14286 10.8095 1.14286H3.19047ZM1.17017 0.836838C1.70599 0.30102 2.43271 0 3.19047 0H10.8095C11.5673 0 12.294 0.30102 12.8298 0.836838C13.3656 1.37266 13.6667 2.09938 13.6667 2.85714V7.42857C13.6667 8.18633 13.3656 8.91306 12.8298 9.44888C12.294 9.9847 11.5673 10.2857 10.8095 10.2857H9.52241L7.40406 12.4041C7.1809 12.6272 6.81909 12.6272 6.59594 12.4041L4.47759 10.2857H3.19047C2.43271 10.2857 1.70599 9.9847 1.17017 9.44888C0.634352 8.91306 0.333332 8.18633 0.333332 7.42857V2.85714C0.333332 2.09938 0.634352 1.37266 1.17017 0.836838ZM3.38095 3.61905C3.38095 3.30346 3.63679 3.04762 3.95238 3.04762H10.0476C10.3632 3.04762 10.619 3.30346 10.619 3.61905C10.619 3.93464 10.3632 4.19048 10.0476 4.19048H3.95238C3.63679 4.19048 3.38095 3.93464 3.38095 3.61905ZM3.38095 6.66667C3.38095 6.35108 3.63679 6.09524 3.95238 6.09524H8.52381C8.8394 6.09524 9.09524 6.35108 9.09524 6.66667C9.09524 6.98226 8.8394 7.2381 8.52381 7.2381H3.95238C3.63679 7.2381 3.38095 6.98226 3.38095 6.66667Z" fill="#A0AEC0"/>
</svg>
